<?xml version="1.0" encoding="UTF-8"?>
<svg id="Layer_2" data-name="Layer 2" xmlns="http://www.w3.org/2000/svg" viewBox="0 0 218.5 62.24">
  <defs>
    <style>
      .cls-1 {
        fill: #f5a9b8;
      }

      .cls-2 {
        fill: #5bcefa;
      }

      .cls-3 {
        fill: #fff;
        stroke: #fff;
        stroke-miterlimit: 10;
        stroke-width: .99px;
      }
    </style>
  </defs>
  <g id="Name_-_Design" data-name="Name - Design">
    <g id="Trans_Colors" data-name="Trans Colors">
      <path class="cls-3" d="M3.18,44.52s-2.88-4.95,6.86-12.82c9.74-7.87,9.94-12.33,9.94-12.33,0,0,5.52-2.15,17.4,4.49l10.25-4.92,18.45,3.23,15.69-3.16,9.83,2.25,13.94-2.22,10.29.06,11.51,3.48,13.91-2.98,9.21,1.48,7.59,1.97,8.01.42,6.14-1.46,5.54,1.03,11.87-.67,14.83-5.54s6.86,7.69,11.48,17.97l-14.23,1.31-22.78,2.08-26.67,1.04-60.39-.22-31.83,1.12-31.07.08-25.77,4.33Z"/>
      <g id="Layer_3" data-name="Layer 3">
        <g>
          <path class="cls-1" d="M202.15,17.14c-7.65,3.79-16.07,7.69-24.41,5.88-1.84-.4-3.66-1.08-5.54-1.03-2.11.06-4.08,1.02-6.14,1.46-7.5,1.59-14.82-3.82-22.48-3.68-5.51.1-10.72,3.08-16.22,2.8-5.19-.26-9.87-3.4-15.04-3.97-6.95-.77-13.73,3.15-20.7,2.64-4.08-.3-8-2.11-12.09-1.95-4.59.19-8.84,2.85-13.43,2.86-6.33,0-12.38-5.01-18.45-3.23-3.66,1.08-6.46,4.5-10.25,4.92-6.12.68-11.66-6.71-17.4-4.49,0,0,6.12-10.18,13.39-8.23,7.27,1.95,28.94-.17,28.94-.17l19.61-3.12,9.33,2.45,21.66-.67,17.04,1.62,21.41,1.23,19.51,1.12,7.95,4.05s10.35-4.63,10.79-4.8,8.64-.3,8.64-.3l3.91,4.61Z"/>
          <path class="cls-1" d="M201.65,16.29c-6.18,3.06-12.83,6.31-19.89,6.2-1.72-.03-3.37-.31-5.04-.73s-3.28-.86-4.98-.73c-1.45.11-2.82.58-4.2,1-1.66.5-3.29.78-5.03.71-6.11-.25-11.62-3.62-17.74-3.94-6.57-.35-12.66,3.77-19.24,2.56-3.06-.56-5.9-1.88-8.85-2.8s-6.1-1.25-9.29-.83-6.17,1.32-9.26,1.96c-3.34.68-6.51.76-9.85.03s-6.61-1.73-10.04-1.29c-3.11.39-5.98,1.67-9.02,2.36-3.26.74-6.25.14-9.36-.89-2.67-.89-5.31-1.96-8.13-2.26-3.2-.34-5.91.75-8.56,2.44s-5.11,3.38-8.33,2.63c-5.04-1.17-9.62-6.26-15.12-4.29l1.12,1.46c1.64-2.7,4-5.31,6.77-6.86,1.04-.58,2.18-1.02,3.38-1.11,1.05-.08,2,.2,3.02.4,1.94.39,3.95.52,5.92.59,4.88.19,9.79-.03,14.66-.34,2.57-.16,5.16-.29,7.72-.6,6.14-.74,12.25-1.94,18.35-2.91.43-.07.88-.1,1.3-.21.54-.14-.63-.2-.03.04,1.56.61,3.36.88,4.99,1.31,1.32.35,2.69.84,4.04,1.06.67.11,1.38,0,2.05-.01l11.03-.34c2.88-.09,5.79-.3,8.68-.27,2.23.02,4.51.41,6.73.62,3.39.32,6.77.67,10.16.97,5.83.51,11.72.68,17.56,1.02l15.41.88,5.5.31c.23.01,2.65.33,2.75.16-.07.12-.65-.32-.31-.05.19.15.48.25.7.36l2.35,1.2c1.51.77,3.01,1.62,4.55,2.32.96.43,1.8-.17,2.69-.57,1.77-.79,3.55-1.59,5.32-2.38.83-.37,1.66-.74,2.48-1.1.3-.13.61-.27.91-.4.13-.05.66-.23.32-.14.19-.05-.08-.02.23-.04.36-.02.71-.04,1.07-.06.98-.04,1.96-.07,2.95-.1,1.38-.04,2.77-.06,4.15-.09l-.7-.29,3.91,4.61c.82.97,2.22-.43,1.4-1.4-1.22-1.44-2.4-2.94-3.67-4.34-.98-1.07-3.27-.53-4.58-.49-1.73.04-3.91-.23-5.55.39-1.79.67-3.53,1.56-5.27,2.34s-3.64,1.62-5.46,2.44h1c-2.49-1.27-4.99-2.54-7.48-3.81-1.48-.75-3.49-.52-5.1-.61l-15.56-.89-17.93-1.03c-4.57-.26-9.11-.74-13.66-1.18-2.21-.21-4.46-.57-6.67-.63-2.03-.06-4.1.13-6.13.19l-10.7.33-3.82.12c-.29,0-.58.01-.87.03s.36.13-.2-.05c-2.84-.89-5.82-1.62-8.72-2.29-.55-.12-1-.04-1.54.04l-3.7.59-10.51,1.67-3.81.61c-.25.04-.5.08-.74.12s.41-.03-.07,0c-7.06.51-14.1,1.12-21.19.94-1.85-.05-3.73-.13-5.56-.41s-3.6-.83-5.55-.45c-3.83.74-6.93,3.8-9.23,6.77-.5.65-.99,1.31-1.42,2.02s.29,1.75,1.12,1.46c2.41-.86,4.73.03,6.91,1.12s4.23,2.33,6.54,3.01c2.52.74,4.95.45,7.29-.73,2.52-1.27,4.67-3.33,7.48-3.97s5.88.35,8.61,1.28,5.51,1.98,8.44,2.11c3.19.14,6.21-1,9.22-1.9,1.56-.46,3.16-.88,4.79-.95,1.81-.07,3.59.26,5.34.66,3.24.74,6.38,1.53,9.73,1.26,3.17-.26,6.24-1.12,9.33-1.82s6.52-1.24,9.79-.56,6.14,2.08,9.26,2.97,5.9.96,8.94.39c3.34-.62,6.55-1.89,9.93-2.3,6.3-.76,11.99,2.56,18.06,3.55,1.51.25,3.05.38,4.58.24,1.85-.17,3.55-.78,5.33-1.27,2-.55,3.76-.42,5.76.09,1.75.45,3.49.83,5.3.93,7.72.44,15.05-3.11,21.78-6.44,1.14-.57.14-2.28-1-1.71Z"/>
        </g>
        <g>
          <path class="cls-2" d="M201.27,14.24c-3.33-3.31-8.96-1.35-12.97,1.09s-8.89,5.27-13.05,3.11c-1.8-.93-3.17-2.72-5.14-3.19-2.68-.64-5.23,1.38-7.94,1.88-4.98.91-9.39-3.3-14.36-4.24-6.92-1.31-14.28,3.83-20.83,1.24-1.61-.64-3.05-1.72-4.74-2.09-2.75-.61-5.51.75-8.31,1.06-5.95.65-11.76-3.46-17.64-2.39-2.48.45-4.74,1.8-7.24,2.13-5.19.68-10.19-3.12-15.38-2.46-3.39.43-6.3,2.72-9.66,3.35-5.2.97-10.44-2.17-15.7-1.6-3.35.36-6.45,2.21-9.81,2.24-2.41.02-4.71-.89-7.07-1.36s-5.65-.82-7.38.85c0,0,6.04-8.18,10.4-8.73s9.52.99,13.46,4.04c0,0,10.54-4.53,15.44-1.67s6.48-3.59,6.48-3.59l9.83-1.83s8.93,4.08,9.73,6.2,5.46-.87,5.46-.87c0,0,6.64-5.95,11.13-4.39s12.15,1.08,14.39,3.97,5.18,1.38,5.18,1.38c0,0,2.91-4.81,12.01-3.01,9.1,1.8,7.52,4.59,7.52,4.59,0,0,2.41-3.84,5.62-3.77s2.71-4.23,15.8-.43c0,0,4.78,4.93,5.9,6.86s3.18,2.23,3.18,2.23l7.87-7.95s6.86-2.9,11.32,1.56,6.55,5.79,6.55,5.79Z"/>
          <path class="cls-2" d="M201.97,13.54c-4.19-3.93-10.32-1.38-14.53,1.15-2.73,1.64-5.85,3.62-9.16,3.52s-4.91-3.19-7.92-3.92-5.59,1.39-8.47,1.88-5.9-1.09-8.53-2.31-5.06-2.16-7.89-2.19c-3.02-.03-5.97.79-8.89,1.44s-6.08,1.23-9,.19c-1.38-.49-2.61-1.34-3.97-1.87-1.53-.59-3.1-.63-4.71-.38s-3.31.85-5,1.04-3.35-.02-4.98-.38c-3.03-.66-5.96-1.78-9.06-2.11s-5.86.75-8.87,1.72c-3.2,1.03-6.09.32-9.21-.63-2.86-.87-5.8-1.76-8.82-1.24s-5.77,2.52-8.85,3.21c-3.8.85-7.6-.72-11.31-1.32-1.69-.27-3.37-.4-5.07-.16s-3.36.82-5.02,1.34c-1.9.59-3.78,1.01-5.77.73s-3.71-.93-5.59-1.28c-2.69-.5-5.83-.78-8.03,1.16l1.56,1.2c1.85-2.5,4.25-5.22,6.92-7.02,4.71-3.17,11.53-.38,15.59,2.69.3.23.69.13,1,0-.43.18.15-.06.27-.1.33-.13.66-.26,1-.38,1.12-.41,2.26-.77,3.42-1.08,2.72-.73,5.95-1.43,8.72-.56,1.31.41,2.36,1.28,3.79,1.31,1.12.02,2.15-.42,2.97-1.16,1.09-.98,1.84-2.46,2.2-3.88l-.69.69,9.83-1.83-.76-.1c1.84.84,3.65,1.77,5.4,2.77,1.12.65,2.29,1.31,3.26,2.19.72.65.96,1.67,1.96,1.99,1.81.59,4.35-.69,5.77-1.79,1.75-1.34,3.45-2.68,5.5-3.56,1.42-.61,3.01-1.05,4.54-.61,1.7.49,3.38.84,5.12,1.09,2.97.43,6.95.44,9.09,2.83,1.43,1.59,4.86,2.95,6.61,1.01.16-.18.04-.06.08-.12.21-.25.43-.48.67-.7.71-.63,1.57-1.1,2.45-1.43,3.87-1.42,8.91-.58,12.57,1.13.71.33,1.73.98,1.95,1.47.09.21.05.17.05.18,0,.2-.03.18.01.04-.07.23-.07.17.02.02-.61,1.12,1.03,2.08,1.71,1,.47-.74,1.09-1.42,1.75-1.99,1.11-.96,2.16-1.17,3.56-1.32,1.24-.14,2.17-.91,3.28-1.39,1.91-.83,4.16-.66,6.16-.34.98.15,1.95.36,2.91.59.64.15,1.9.3,2.26.52.77.45,1.49,1.57,2.08,2.22.98,1.07,1.95,2.14,2.84,3.29s1.54,2.41,2.88,3.15c.75.41,1.85.95,2.62.35.44-.35.82-.83,1.22-1.23l5.14-5.19c.23-.24,1.44-1.13,1.45-1.47,0,.05-.65.21-.2.13.37-.07.75-.26,1.12-.36,1.43-.39,2.94-.56,4.42-.41,2.4.26,3.96,1.52,5.63,3.14,1.78,1.73,3.64,3.59,5.73,4.95,1.07.69,2.07-1.02,1-1.71-1.66-1.08-3.13-2.54-4.56-3.89s-2.73-2.83-4.58-3.65c-1.47-.65-3.09-.91-4.69-.86s-3.95.21-5.25,1.22-2.48,2.51-3.67,3.71c-1.4,1.41-2.8,2.82-4.19,4.24l.96-.25c-1.4-.23-2.18-1.21-2.94-2.31-.89-1.28-1.94-2.45-2.98-3.6-.83-.92-1.65-1.86-2.53-2.72-.39-.38-.77-.49-1.32-.65-1.21-.34-2.42-.64-3.65-.88-2.57-.5-5.44-.91-7.98-.04-.7.24-1.35.58-2,.94-.5.27-.92.5-1.29.55-.69.1-1.36.04-2.05.25-.87.26-1.66.73-2.37,1.29-.97.76-1.84,1.7-2.5,2.74l1.71,1c.71-1.29-.21-2.7-1.22-3.5-1.46-1.15-3.38-1.72-5.15-2.17-2.46-.62-5.03-1.01-7.56-.73s-5.22,1.25-6.9,3.28c-.11.13-.36.35-.39.52.08-.37.6-.3.2-.3-.31,0-.65.18-.97.2-2.1.11-3.02-2.08-4.74-2.9-3.88-1.85-8.46-1.44-12.53-2.67-3.77-1.14-7.38.7-10.42,2.87-.52.37-1.02.76-1.52,1.16-.15.12-.83.62-.42.35-.96.61-2.26,1.4-3.42,1.45-.65.03-.57-.23-.9-.71-.38-.55-.91-.98-1.44-1.38-1.37-1.05-2.88-1.91-4.4-2.73-1.26-.67-2.54-1.39-3.86-1.93-.79-.32-1.64-.01-2.46.14l-8.25,1.54c-.33.06-.61.38-.69.69-.3,1.2-.96,2.61-2.05,3.27s-2.16.13-3.19-.39c-1.16-.59-2.4-.85-3.69-.93-4.21-.28-8.69,1.08-12.53,2.72h1c-2.79-2.1-6.08-3.56-9.54-4.08-2.65-.4-5.26-.34-7.59,1.09-3.2,1.97-5.87,5.02-8.09,8.03-.7.95.76,1.9,1.56,1.2,2.06-1.82,5.83-.78,8.18-.18,3.15.8,5.94,1.29,9.13.43s5.93-2.02,9.24-1.67,6.3,1.5,9.55,1.73,5.84-.86,8.67-2.12c1.29-.57,2.61-1.13,4.01-1.36,1.68-.27,3.39.01,5.02.43,2.83.73,5.57,1.88,8.52,2.06,3.28.21,5.98-1.47,9.08-2.14,6.03-1.3,11.72,2.98,17.79,2.35,3.3-.34,6.43-2.05,9.67-.52,1.28.6,2.49,1.35,3.85,1.77s2.92.57,4.39.5c5.75-.25,11.43-3.41,17.19-1.63,2.77.86,5.25,2.44,8,3.37s5.35.73,8.09-.34c1.48-.58,3.12-1.4,4.75-1.03s2.87,1.82,4.25,2.7c2.85,1.82,6.19,1.43,9.19.21s5.76-3.4,8.88-4.64c2.7-1.07,6.08-1.73,8.41.46.93.87,2.33-.53,1.4-1.4Z"/>
        </g>
        <g>
          <path class="cls-1" d="M213.9,33.85c-3.91-1.79-7.98,3.01-12.21,2.24s-8.54-2.15-12.75-1.27c-3.46.72-6.52,2.93-10.03,3.35-5.41.66-10.67-3.03-16.08-2.31-3.69.49-6.9,2.98-10.6,3.35-5.04.5-9.6-2.98-14.62-3.68-5.78-.81-11.45,2.13-17.29,2.16-6.64.04-13-3.68-19.6-2.98-4.84.51-9.19,3.36-14.02,3.95-6.18.76-12.46-2.24-18.57-1.01-2.78.56-5.34,1.97-8.13,2.45-7.59,1.32-15.2-4.34-22.73-2.71-2.87.62-5.45,2.27-8.34,2.79-4.34.77-8.7-1.1-13.1-1.2-4.75-.11-9.52,1.97-12.67,5.53,0,0-2.68,8.45,5.37,12.39,8.05,3.93,21.43-7.74,21.43-7.74,0,0,2.27-1.63,11.62,2.22s18.88-3.05,19.19-3.47,14.22,3.87,16.49,2.93,13.73-7.76,15.38-5.85,12.15,3.02,12.15,3.02c0,0,14.34,3.7,17.73.95,3.39-2.75,11.67.38,12.1.55s13.75-.27,18.65-1.42,6.56,2.57,13.16,2.08,11.6-1.08,14.18-2.69,3.43,1.29,6.49,1.54,10.41,1.84,14.01.36,7.2-1.98,10.17-1.5,4.82-2.5,4.82-2.5c0,0,2.09-9.57-2.19-11.53Z"/>
          <path class="cls-1" d="M214.16,32.9c-4.38-1.82-7.92,2.8-12.21,2.24-2.85-.37-5.6-1.27-8.47-1.52s-5.56.27-8.23,1.37-5.11,2.34-7.96,2.27c-2.66-.06-5.21-.99-7.76-1.66s-5.02-1.08-7.57-.59-5.02,1.93-7.58,2.73c-5.53,1.72-10.25-1.89-15.48-2.99-5.61-1.18-10.88,1.19-16.38,1.81-5.82.66-11.16-1.83-16.81-2.66-2.61-.38-5.19-.33-7.75.32s-5.14,1.81-7.75,2.63c-2.92.92-5.78,1.1-8.81.74-2.82-.33-5.59-.97-8.42-1.17s-5.44.22-8.1,1.15-5.31,1.89-8.26,1.72c-5.25-.3-10.11-2.81-15.37-3.14-2.75-.17-5.25.46-7.78,1.48-2.86,1.15-5.45,1.97-8.57,1.65-2.89-.29-5.69-1.13-8.6-1.27-2.53-.13-5.07.34-7.41,1.3s-4.47,2.36-6.15,4.21c-.54.59-.65,1.11-.78,1.87-.47,2.76-.15,5.7,1.31,8.13,1.85,3.07,5.32,5.14,8.92,5.18s7.12-1.45,10.22-3.14c2.57-1.4,4.99-3.06,7.27-4.88.26-.21.52-.42.78-.63.22-.19.27-.16.03-.04.25-.12-.22.02.1-.04s.49-.12.73-.13c3.9-.31,7.6,1.81,11.19,2.94,4.44,1.41,9.25.73,13.49-1.02,1.47-.61,2.9-1.33,4.24-2.21.35-.23.73-.47,1.04-.75.02-.02.21-.16.2-.18.03.08-.58.26-.58.26,0,0,.19.01.2.01-.02-.02.68.14.94.19.66.15,1.32.31,1.99.47,1.59.39,3.19.79,4.78,1.16,2.51.58,5.47,1.54,8.08,1.22.99-.12,1.91-.72,2.78-1.17,1.39-.72,2.77-1.45,4.16-2.15,1.52-.76,3.05-1.51,4.64-2.12.9-.35,2.49-1.08,3.4-.83.24.07-.1-.07.08.03.21.11.4.36.6.5.53.35,1.14.59,1.73.8,1.5.54,3.09.86,4.66,1.15s2.99.5,4.5.69c.39.05.78.09,1.18.14.41.05-.33-.08.1.03,2.42.65,4.93,1.1,7.41,1.46,3,.43,6.54,1.01,9.5.04,1.4-.46,2.34-1.45,3.88-1.63,1.84-.22,3.75.13,5.54.56,1.1.27,2.15.71,3.23.99.65.17,1.36.1,2.03.09,3.45-.06,6.91-.26,10.35-.56,1.74-.15,3.48-.33,5.2-.61s3.24-.72,4.96-.27c1.63.42,3.13,1.22,4.76,1.64,2.39.62,4.77.44,7.2.23s5.06-.46,7.54-.97c1.87-.38,3.39-1.07,5.09-1.84,1.43-.65,3.1,1.23,4.46,1.63,1.71.5,3.72.53,5.48.76,2.2.28,4.43.54,6.65.42,2.33-.13,4.27-1.1,6.51-1.67,1.39-.35,2.8-.57,4.23-.59,1.22-.02,2.46.31,3.67.19,1.64-.16,3.08-1.15,4.1-2.41,1.15-1.43,1.05-3.9,1.08-5.63.05-2.8-.37-6.45-3.18-7.85-1.14-.57-2.14,1.14-1,1.71,2.68,1.33,2.33,5.64,2.08,8.12-.07.73-.12,1.57-.34,2.27.12-.36.09-.16-.03-.03-.15.16-.27.34-.42.49-.57.6-1.27,1.12-2.09,1.3-1.04.24-2.19-.12-3.25-.15-1.36-.03-2.72.12-4.05.37-2.38.45-4.56,1.7-6.98,1.87-2.1.15-4.22-.06-6.3-.31-1.75-.21-3.6-.32-5.32-.69s-2.79-1.91-4.52-1.96c-.84-.02-1.54.34-2.25.74-.77.43-1.59.72-2.44.96-2.19.61-4.47.88-6.73,1.11-2.53.26-5.22.69-7.75.23-1.73-.32-3.3-1.08-4.95-1.63s-3.32-.62-5.04-.26c-3.28.68-6.65.92-9.99,1.13-1.72.11-3.45.19-5.17.25-.98.03-2.02.14-3,.04-.24-.03.05.01.04.01-.1-.03-.21-.08-.31-.12-.48-.2-.99-.34-1.49-.49-1.58-.48-3.2-.83-4.85-1.01s-3.56-.16-5.16.55c-1.2.53-1.94,1.22-3.3,1.4-3.15.41-6.51-.17-9.61-.73-1.81-.33-3.59-.87-5.41-1.14-2.38-.36-4.77-.62-7.13-1.15-1.28-.29-2.86-.55-3.96-1.3-.8-.55-1.29-.95-2.35-.88-2.85.18-5.75,1.85-8.25,3.09-1.42.71-2.82,1.45-4.23,2.18-.48.25-.95.5-1.44.73-.4.2-.54.26-.77.29-2.62.24-5.57-.76-8.09-1.36-1.51-.36-3.02-.74-4.53-1.11-.94-.23-1.95-.56-2.92-.61-.67-.03-1.06.37-1.42.63-1.09.78-2.28,1.42-3.5,1.99-4.2,1.96-9.09,2.76-13.54,1.21-3.53-1.23-7.14-3.01-10.99-2.9-.99.03-1.83.19-2.6.81-1.79,1.47-3.66,2.82-5.63,4.04-5.55,3.43-14.54,7.03-18.64-.5-1.1-2.02-1.38-4.7-.78-6.93.04-.14.04-.34.12-.46-.21.33.3-.16.29-.15.26-.18.48-.47.71-.68.58-.52,1.19-.99,1.84-1.41,2.12-1.38,4.57-2.27,7.09-2.51,5.55-.51,10.89,2.38,16.42.8,2.66-.76,5.09-2.24,7.85-2.63,2.56-.36,5.15.12,7.63.74,4.82,1.21,9.72,3.07,14.75,2.03,2.78-.58,5.32-1.99,8.13-2.45s5.72,0,8.51.45,5.33.91,8.03.79,5.26-.93,7.79-1.85,5.21-2.03,7.99-2.25,5.41.32,8.03.98,5.19,1.41,7.86,1.79,5.26.23,7.89-.25c2.79-.52,5.53-1.35,8.36-1.67s5.26.06,7.84.95c2.4.83,4.73,1.94,7.22,2.46s4.92.33,7.32-.54,4.88-2.31,7.55-2.58,5.11.51,7.57,1.2,4.81,1.34,7.29,1.22c2.67-.12,5.06-1.24,7.48-2.25,2.74-1.14,5.38-1.65,8.36-1.34,2.77.29,5.47,1.29,8.24,1.5,1.98.15,3.84-.65,5.61-1.42,1.87-.81,3.83-1.75,5.85-.91,1.18.49,1.69-1.43.53-1.91Z"/>
        </g>
      </g>
      <g>
        <path class="cls-2" d="M214.69,46.49c-3.06-2.17-7.26-1.6-10.83-.44s-7.12,2.84-10.86,2.61c-4.17-.25-7.9-2.84-12.05-3.22-5.81-.53-11.34,3.32-17.15,2.82-3.43-.3-6.64-2.11-10.08-2.1-5.49,0-10.49,4.61-15.88,3.6-3.26-.61-5.87-3.18-9.11-3.88-3.92-.85-7.8,1.17-11.67,2.23-4.74,1.3-9.86,1.16-14.52-.41-3.27-1.1-6.45-2.9-9.89-2.72-4.69.25-8.48,4.11-13.11,4.91-6.78,1.17-13.5-4.46-20.19-2.88-4.8,1.14-8.86,5.88-13.7,4.88-3.85-.8-6.49-5.11-10.42-5.19-4.16-.08-7.05,4.63-11.19,5.12-2.06.24-4.08-.61-6.13-.94-4.56-.73-9.45,1.4-12.02,5.23,0,0,2.24,4.26,10.7,4.71,8.47.46,13.38-11.67,13.38-11.67,0,0,4.31,9.94,11.94,10.79,7.63.85,14.86-3.34,17.57-12.06l-1.83,7.73s10.21,5.02,17.35,1.05c7.14-3.97,13.68-10.23,13.68-10.23,0,0,4.77,9.7,11.78,9.72,7.01.02,7.17-4.74,7.17-4.74,0,0,3.11,4.04,9.35,3.17s8.92-8.37,8.92-8.37l-2.11,5.28s2.06,5.1,9.33,4.07,12.99-6.82,12.99-6.82c0,0-2.03,4.44-.29,5.63s9.14,4.84,16.14,1.34l1.78-2.38s2.53,2.28,9.37,2.38,6.41-4.88,6.41-4.88c0,0-.17,5.53,6.14,5.58s10.89-.61,13.03-5.41c0,0,2.25,3.69,5.77,3.51s7.93-2.2,8.98-4.28,1.24-3.76,1.24-3.76Z"/>
        <path class="cls-2" d="M215.19,45.64c-7.07-4.72-14.49,2.22-21.74,2.06-4-.08-7.51-2.47-11.41-3.1s-7.36.56-10.94,1.59c-1.91.55-3.86,1.07-5.85,1.13s-3.9-.48-5.8-1.04-3.77-1.1-5.72-1.09c-1.65,0-3.29.39-4.84.92-3.25,1.1-6.58,3.09-10.12,2.8-3.73-.31-6.53-3.43-10.2-4.04-4.02-.68-7.77,1.19-11.54,2.25-4.06,1.15-8.4,1.21-12.49.16-3.83-.98-7.39-3.3-11.44-3.28-3.51.02-6.53,1.96-9.57,3.46-1.61.8-3.31,1.48-5.12,1.6s-3.69-.23-5.47-.71c-3.43-.93-6.76-2.37-10.34-2.56s-6.45,1.33-9.42,3.01-6.1,3.19-9.41,1.3c-2.55-1.46-4.68-3.87-7.73-4.29s-5.58,1.54-8,3.19c-1.32.9-2.77,1.82-4.41,1.9-2.01.1-3.94-.76-5.91-1.01-3.22-.41-6.59.46-9.24,2.31-1.34.94-2.47,2.09-3.4,3.44-.2.29-.16.7,0,1,2.01,3.75,7.54,4.96,11.34,5.19,5.57.33,9.79-4.02,12.5-8.41.78-1.27,1.49-2.6,2.06-3.98l-1.81.24c1.58,3.62,4.27,7.15,7.57,9.35,5.22,3.47,12.61,2.3,17.4-1.38,3.11-2.39,5.17-5.76,6.35-9.47l-1.91-.53-1.83,7.73c-.09.4.06.92.46,1.12,3.42,1.67,7.39,2.68,11.19,2.71,6.52.05,11.92-4.4,16.74-8.32,1.47-1.19,2.93-2.42,4.3-3.73l-1.56-.2c1.49,3,3.74,5.88,6.41,7.9,3.58,2.7,9.8,3.59,13.03-.2.75-.88,1.31-2.04,1.36-3.22l-1.69.7c2.73,3.49,8.45,4.44,12.39,2.85,3.56-1.44,6.25-4.94,7.54-8.49.44-1.21-1.45-1.69-1.91-.53-.66,1.65-1.42,3.3-1.99,4.98-.38,1.11.59,2.2,1.32,2.97,4.56,4.85,12.31,2.49,17.23-.44,1.89-1.12,3.75-2.46,5.31-4.02l-1.56-1.2c-.73,1.63-1.52,3.78-.97,5.57.58,1.9,3.41,2.75,5.07,3.32,3.17,1.08,6.65,1.41,9.92.62,1.3-.31,2.93-.73,3.76-1.83.52-.69,1.04-1.38,1.56-2.08l-1.56.2c.84.74,1.94,1.2,2.98,1.57,2.74.97,6.02,1.38,8.9,1s5.84-2.52,5.59-5.76c-.1-1.26-1.95-1.29-1.98,0-.08,3.61,2.81,6.2,6.25,6.53,5.46.52,12.2-.34,14.76-5.86h-1.71c.68,1.09,1.62,2.04,2.67,2.77,2.01,1.41,4.28,1.39,6.59.83s4.73-1.55,6.36-3.25c1.32-1.37,1.99-3.52,2.22-5.38.16-1.26-1.83-1.25-1.98,0,.05-.38-.04.21-.07.32-.09.39-.19.78-.31,1.16-.3.93-.65,1.9-1.36,2.6-1.41,1.39-3.5,2.18-5.39,2.64s-3.59.48-5.19-.72c-.71-.53-1.37-1.22-1.84-1.97-.36-.58-1.38-.71-1.71,0-2.22,4.79-7.68,5.06-12.35,4.92-2.72-.08-5.03-1.87-4.97-4.59h-1.98c.19,2.47-2.32,3.77-4.65,3.88-2.44.11-5.02-.21-7.33-1.03-.59-.21-1.17-.47-1.71-.79-.14-.08-.27-.17-.4-.26-.15-.11.16.14,0,0-.52-.46-1.16-.33-1.56.2l-1.18,1.58c-.15.19-.34.63-.56.75.06-.03-.56.09-.71.15-.41.16-.84.3-1.26.41-2.79.77-5.76.55-8.51-.27-.99-.29-1.96-.66-2.89-1.12-.5-.25-1.33-.53-1.58-1.06-.51-1.08.36-3.13.77-4.04.44-.97-.71-2.05-1.56-1.2-3.21,3.22-7.68,5.76-12.17,6.5-2.49.41-5.25.11-7.18-1.65-.45-.41-.85-.88-1.16-1.4-.06-.09-.13-.35-.22-.42.17.12-.18.94.18.39.51-.79.77-1.92,1.12-2.8l.88-2.19-1.91-.53c-.97,2.68-3.26,5.83-6.12,7.09-3.33,1.47-8.18.64-10.5-2.32-.57-.73-1.66-.07-1.69.7-.01.26.03-.12,0,.05-.05.23-.1.46-.17.68-.24.67-.67,1.25-1.21,1.7-2.11,1.73-5.62,1.68-7.98.55-3.41-1.63-6.09-5.12-7.74-8.46-.29-.59-1.12-.61-1.56-.2-1.46,1.39-3,2.69-4.57,3.95s-3.21,2.49-4.89,3.63-3.56,2.49-5.55,3.18c-4.68,1.63-10.46.4-14.83-1.73l.46,1.12,1.83-7.73c.29-1.24-1.52-1.74-1.91-.53-1.89,5.92-6.54,10.64-12.9,11.34-2.77.31-5.46-.06-7.82-1.6-2-1.3-3.63-3.17-4.96-5.14-.76-1.13-1.47-2.32-2.02-3.57-.38-.88-1.53-.45-1.81.24-.04.1.11-.26,0,0-.09.21-.18.41-.28.62-.3.64-.63,1.27-.98,1.89-1.07,1.89-2.33,3.68-3.88,5.21-1.67,1.64-3.77,3.02-6.16,3.21-2.77.23-5.99-.51-8.4-1.91-1-.58-2.09-1.42-2.57-2.3v1c1.95-2.81,5.21-4.64,8.63-4.86s6.96,1.94,10.5.63c2.82-1.04,4.87-3.53,7.73-4.44,3.13-1,5.63,1.49,8,3.12,2.57,1.76,5.36,2.46,8.39,1.42s5.74-3.34,8.92-4.33c3.49-1.08,7.08.09,10.43,1.15s6.63,2.1,10.08,1.6,6.28-2.56,9.39-3.91c1.81-.79,3.73-1.23,5.7-.93s3.74,1.06,5.53,1.77c3.7,1.46,7.51,2.31,11.51,2.14s7.69-1.66,11.58-2.72c2-.54,4.07-.82,6.09-.2,1.76.55,3.32,1.6,4.96,2.43,3.13,1.58,6.18,1.74,9.51.67s6.37-2.92,9.84-2.99c3.88-.08,7.41,2.13,11.3,2.14s7.26-1.47,10.85-2.34c1.9-.46,3.88-.75,5.83-.46s3.64.98,5.4,1.63c3.7,1.35,7.11,1.95,10.99.94s7.26-2.9,11.18-3.05c1.84-.07,3.57.28,5.11,1.32,1.06.71,2.06-1,1-1.71Z"/>
      </g>
    </g>
    <g id="Text">
      <path d="M22.2,37.02c4.76,2.42,7.12,8.24,5.92,13.38-1.32,5.64-6.9,8.97-12.47,8.88-5.96-.09-10.66-4.37-12.17-10-.76-2.82-.7-5.82.28-8.58,1.09-3.06,3.24-5.62,5.49-7.91s4.77-4.45,7.01-6.82c2.56-2.7,4.61-5.78,6.73-8.83,3.69-5.32,9.28-12.25,16.66-10.97,6.77,1.17,10.46,8.08,12.21,14.06,1.09,3.75,1.75,7.6,2.8,11.36s2.55,7.28,3.23,11.08c.6,3.37.2,6.72-1.62,9.66-1.57,2.53-4.02,4.59-6.81,5.66-5.95,2.29-12.52-.52-16.05-5.62-.89-1.29-1.57-2.67-2.03-4.17-.55-1.83-3.42-1.05-2.87.79,2.08,6.89,8.54,12.44,15.83,12.81s13.83-4.68,16.05-11.31c1.32-3.96.66-8.2-.48-12.11-1.25-4.29-2.67-8.46-3.66-12.83-1.75-7.67-4-16.02-11.15-20.42s-15.03-.95-20.18,4.7c-2.94,3.22-5.17,7.01-7.76,10.5-2.35,3.16-5.24,5.78-8.07,8.49C3.79,33.85-.84,39.79.13,47.51c.84,6.68,5.41,12.87,12.2,14.36,6.42,1.41,13.81-1.16,17.2-6.98,3.2-5.49,2.13-12.91-2.07-17.57-1.06-1.17-2.35-2.14-3.75-2.86-1.7-.87-3.21,1.7-1.5,2.57h0Z"/>
      <path d="M49.75,9.57c4.07-4.12,10.91-3.37,15.29-.17s6.12,8.85,4.83,13.95c-.47,1.85,2.4,2.65,2.87.79,1.64-6.46-.79-13.39-6.2-17.31s-13.92-4.4-18.89.63c-1.35,1.36.75,3.46,2.1,2.1h0Z"/>
      <path d="M68.06,8.9c1.89-5.83,9.27-7.2,14.35-4.96,6.28,2.77,9.49,9.41,10.29,15.92,1.57,12.82-3.32,27.82-15.29,34.12-3.09,1.63-6.56,2.63-10.06,2.77-1.73.07-3.46-.06-5.16-.43-.9-.2-3.99-.71-4.08-1.92-.15-1.89-3.12-1.91-2.97,0,.29,3.83,5.21,4.72,8.3,5.13,3.6.47,7.3.09,10.76-1.01,7.28-2.3,13.18-7.51,16.84-14.16s5.37-15.13,4.79-22.96-3.9-15.94-11.23-19.7c-6.9-3.54-16.77-1.62-19.39,6.42-.59,1.82,2.28,2.6,2.87.79h0Z"/>
      <path d="M94.36,14.02c-.63-1.11-.42-2.9-.18-4.1.35-1.8,1.61-3.13,3.12-4.12,3.38-2.21,7.55-2.63,11.47-2.1,1.98.27,3.94.78,5.83,1.45s3.78,1.5,4.93,3.22c2.2,3.29,1.65,7.72-.51,10.87-2.57,3.76-7.39,5.23-11.68,3.98-1.84-.53-2.63,2.33-.79,2.87,4.84,1.4,10.33.06,13.76-3.71s4.61-9.04,2.75-13.65c-1.99-4.92-7.26-6.72-12.1-7.66s-10.26-.76-14.65,1.86c-2.23,1.33-4.31,3.31-4.92,5.92-.48,2.07-.67,4.76.42,6.67.95,1.66,3.52.17,2.57-1.5h0Z"/>
      <path d="M115.35,26.18c2.67,2.32,4.91,5.06,6.61,8.17.83,1.52,1.52,3.1,2.06,4.75s1.16,3.59,1.02,5.4c-.25,3.2-3.1,6.66-5.73,8.32-3.13,1.97-6.32,1.39-9.22-.72-3.09-2.25-5.84-6.36-3.83-10.2.89-1.69-1.68-3.2-2.57-1.5-2.13,4.07-.79,8.71,2.21,11.95s7.19,5.48,11.55,4.47c4.03-.93,7.28-4.33,9.16-7.86,1.09-2.04,1.61-4.09,1.29-6.4s-1.04-4.54-1.93-6.67c-1.9-4.53-4.81-8.58-8.52-11.81-1.44-1.25-3.55.84-2.1,2.1h0Z"/>
      <path d="M106.86,52.8c-.22,1.9-2.97,2.58-4.51,2.63-1.97.06-3.97-.41-5.73-1.29s-3.24-2.06-4.43-3.56c-.58-.74-1.1-1.57-1.48-2.43-.25-.57-.77-1.74-.5-2.37.32-.74.22-1.58-.53-2.03-.62-.37-1.72-.2-2.03.53-1.08,2.53.24,5.41,1.74,7.5,1.6,2.22,3.75,4.04,6.24,5.18s5.57,1.78,8.43,1.27,5.41-2.41,5.77-5.42c.09-.8-.75-1.49-1.49-1.49-.88,0-1.39.69-1.49,1.49h0Z"/>
      <path d="M123.95,11.97c1.19-5.45,8.18-7.48,12.97-6.13,6.24,1.76,10.88,7.62,13.4,13.33s3.2,12.46,1.4,18.54c-1.66,5.62-5.47,10.62-10.44,13.74-2.62,1.64-5.72,2.94-8.83,3.15-2.86.19-6.15-.43-7.48-3.27-.81-1.73-3.37-.22-2.57,1.5,3,6.44,11.95,5.16,17.21,2.86,6.31-2.77,11.35-8.15,14-14.47,2.88-6.87,2.69-14.81.03-21.72s-7.72-13.54-14.82-16.16c-6.47-2.38-16.11.33-17.74,7.84-.41,1.86,2.46,2.66,2.87.79h0Z"/>
      <path d="M146.72,9.96c2.65-3.59,6.83-4.85,11.14-4.76,4.06.08,8.32,1.32,11.22,4.29,2.54,2.6,4.03,6.68,2.66,10.21-.63,1.63-1.84,3.04-3.34,3.94-1.39.84-3.64,1.53-5.09.48-1.55-1.13-3.03,1.45-1.5,2.57,3.04,2.21,7.68.3,10.07-2,2.78-2.67,3.81-6.51,3.09-10.24-1.66-8.61-10.81-12.62-18.81-12.18-4.86.26-9.1,2.27-12.01,6.21-1.14,1.54,1.44,3.02,2.57,1.5h0Z"/>
      <path d="M167.72,27.24c5.9,5.69,12.39,13.93,10.06,22.64-.5,1.85-1.19,4.11-3.26,4.62-1.92.48-4.13.33-6.03-.21-3.7-1.05-6.71-4.21-6.78-8.18-.03-1.91-3.01-1.92-2.97,0,.15,8.29,8.71,12.75,16.18,11.33,4.17-.79,5.68-5.35,6.17-9.08.56-4.22-.45-8.24-2.49-11.93-2.31-4.18-5.34-7.99-8.78-11.3-1.38-1.33-3.48.77-2.1,2.1h0Z"/>
      <path d="M161.88,53.79c.1,1.7-2.33,1.91-3.55,2.09-1.93.3-3.91.53-5.87.33-2.66-.26-6.02-1.87-6.4-4.86-.1-.8-.61-1.49-1.49-1.49-.72,0-1.59.68-1.49,1.49.61,4.75,4.9,7.41,9.38,7.83,2.56.24,5.26-.12,7.77-.63,2.35-.47,4.77-2.09,4.62-4.77-.11-1.9-3.08-1.91-2.97,0h0Z"/>
      <path d="M190.1,37.96c2.73,1.87,5.6,3.83,7.21,6.82,1.39,2.59,1.35,5.74-.7,7.98-2.26,2.48-5.7,2.42-8.8,2.3s-6.65-.38-7.41-3.93c-.4-1.87-3.27-1.08-2.87.79.71,3.29,3.47,5.29,6.68,5.81s6.69.66,9.76-.1,5.39-2.81,6.57-5.64.77-6.14-.75-8.87c-1.87-3.36-5.09-5.61-8.19-7.74-1.58-1.08-3.07,1.49-1.5,2.57h0Z"/>
      <path d="M174.78,19.92c.56-2.94,2.6-5.13,4.61-7.22s3.88-4.47,6.56-5.51c2.99-1.16,6.02.25,8.45,1.98,2.69,1.91,5.04,4.4,7.28,6.8,4.43,4.76,8.64,10.09,11.48,15.97,2.55,5.28,3.57,11.52.34,16.74-1.45,2.33-3.65,4.19-6.38,4.76-2.11.44-5.71-.37-5.92-3.01-.15-1.89-3.12-1.91-2.97,0,.24,3.05,2.62,5.17,5.51,5.86s6.07-.17,8.47-1.93c5.51-4.03,7.23-11.14,5.81-17.58-1.67-7.56-6.78-14.3-11.7-20.07-2.54-2.98-5.27-5.88-8.26-8.43-2.78-2.37-6.17-4.6-9.96-4.51-4.18.09-7.16,3.02-9.88,5.85s-5.56,5.6-6.31,9.5c-.36,1.87,2.51,2.67,2.87.79h0Z"/>
      <path d="M34.63,18.42c1.76,1.17,3.01,3.12,3.3,5.23.14,1.05.03,2.12-.27,3.13-.16.55-.39,1.07-.67,1.57-.15.25-.3.51-.47.74-.06.08-.11.15-.17.22-.05.06-.09.11-.14.17-.13.14-.09.12.14-.05-.79.13-1.23,1.11-1.04,1.83.23.84,1.03,1.17,1.83,1.04.88-.14,1.47-1.03,1.95-1.71s.85-1.42,1.15-2.19c.59-1.48.84-3.13.67-4.72-.33-3.21-2.09-6.05-4.77-7.82-.67-.44-1.64-.13-2.03.53-.43.73-.14,1.59.53,2.03h0Z"/>
      <path d="M104.85,10.49c.1.07.2.14.3.21.03.02.28.22.11.08.17.14.34.28.51.43.33.29.64.6.93.94.08.09.16.18.23.28-.12-.16.03.04.07.11.12.18.24.36.35.55.06.1.12.21.17.32.01.02.13.27.08.15-.06-.15.07.2.08.23.04.11.07.22.1.33.05.19.09.38.12.57-.02-.14-.02-.16-.01,0,0,.11.01.22.01.33,0,.2-.01.39-.03.59.02-.31,0-.02-.02.06-.02.11-.04.21-.07.32-.02.08-.05.17-.07.25,0,0-.14.36-.06.18s-.07.14-.09.17c-.04.07-.08.15-.13.22,0,0-.22.31-.1.16s-.13.14-.13.14c-.06.06-.12.12-.18.18-.28.28.23-.15-.1.08-.64.44-.99,1.32-.53,2.03.41.63,1.35,1.01,2.03.53,2.05-1.42,2.8-3.94,2.29-6.33s-2.39-4.28-4.35-5.65c-.64-.45-1.68-.14-2.03.53-.4.76-.15,1.56.53,2.03h0Z"/>
      <path d="M134.64,23.51c2.41.29,3.6,2.98,4.02,5.04.56,2.74.53,5.78-.35,8.44-.6,1.82,2.27,2.6,2.87.79,1.11-3.36,1.08-7.4.17-10.8s-3.21-6.02-6.7-6.44c-.8-.1-1.49.75-1.49,1.49,0,.88.69,1.39,1.49,1.49h0Z"/>
      <path d="M159.68,11.78c.16.02.31.05.47.09.08.02.17.05.25.08.22.07-.05.01-.06-.03.02.06.35.19.41.23.06.04.12.08.17.12.15.1-.21-.19,0,0,.12.11.24.22.35.33.05.05.1.11.14.16.21.25,0,0,0,0,.02-.02.46.76.5.84.11.21,0-.05-.02-.06.03.01.08.2.09.23.07.19.13.38.18.58s.1.39.13.59c.02.11.04.22.06.33.04.23-.02-.23,0,0,.06.84.1,1.67.11,2.51,0,.78.68,1.52,1.49,1.49s1.49-.65,1.49-1.49c-.01-1.97-.09-3.99-1-5.79-.76-1.5-2.24-2.85-3.96-3.09-.41-.06-.77-.07-1.15.15-.31.18-.6.53-.68.89-.16.7.21,1.72,1.04,1.83h0Z"/>
      <path d="M186.58,17.24c1.91.41,3.42,1.57,4.33,3.31.41.79.62,1.93.7,2.99.1,1.39.15,2.81.6,4.15.25.76,1.03,1.26,1.83,1.04.74-.2,1.29-1.06,1.04-1.83-.44-1.33-.41-2.7-.55-4.08s-.47-2.8-1.2-4.06c-1.26-2.19-3.47-3.85-5.95-4.39-.78-.17-1.61.23-1.83,1.04-.2.74.25,1.66,1.04,1.83h0Z"/>
    </g>
  </g>
</svg>